solid 
facet normal 0.0 -1.0 0.0
outer loop
vertex 36.0 0.0 0.0
vertex 36.0 0.0 9.8
vertex 28.736686390532544 0.0 9.8
endloop
endfacet
facet normal 0.0 -1.0 0.0
outer loop
vertex 17.5 0.0 2.3500000000000005
vertex 19.263313609467456 0.0 9.8
vertex -19.263313609467456 0.0 9.8
endloop
endfacet
facet normal 0.0 -1.0 0.0
outer loop
vertex -30.5 0.0 2.3500000000000005
vertex -28.736686390532544 0.0 9.8
vertex -36.0 0.0 9.8
endloop
endfacet
facet normal -0.0 -1.0 -0.0
outer loop
vertex 36.0 0.0 0.0
vertex 28.736686390532544 0.0 9.8
vertex 30.5 0.0 2.3500000000000005
endloop
endfacet
facet normal -0.0 -1.0 -0.0
outer loop
vertex 17.5 0.0 2.3500000000000005
vertex -19.263313609467456 0.0 9.8
vertex -17.5 0.0 2.3500000000000005
endloop
endfacet
facet normal -0.0 -1.0 -0.0
outer loop
vertex -30.5 0.0 2.3500000000000005
vertex -36.0 0.0 9.8
vertex -36.0 0.0 0.0
endloop
endfacet
facet normal 0.0 -1.0 0.0
outer loop
vertex -36.0 0.0 0.0
vertex 36.0 0.0 0.0
vertex 30.5 0.0 2.3500000000000005
endloop
endfacet
facet normal -0.0 -0.9999999999999999 0.0
outer loop
vertex -17.5 0.0 2.3500000000000005
vertex -30.5 0.0 2.3500000000000005
vertex -36.0 0.0 0.0
endloop
endfacet
facet normal 0.0 -0.9999999999999999 0.0
outer loop
vertex -36.0 0.0 0.0
vertex 30.5 0.0 2.3500000000000005
vertex 17.5 0.0 2.3500000000000005
endloop
endfacet
facet normal -0.0 -1.0 0.0
outer loop
vertex 17.5 0.0 2.3500000000000005
vertex -17.5 0.0 2.3500000000000005
vertex -36.0 0.0 0.0
endloop
endfacet
facet normal -0.0 1.0 0.0
outer loop
vertex 28.736686390532544 34.0 9.8
vertex 36.0 34.0 9.8
vertex 36.0 34.0 0.0
endloop
endfacet
facet normal -0.0 1.0 0.0
outer loop
vertex -19.263313609467456 34.0 9.8
vertex 19.263313609467456 34.0 9.8
vertex 17.5 34.0 2.3500000000000005
endloop
endfacet
facet normal -0.0 1.0 0.0
outer loop
vertex -36.0 34.0 9.8
vertex -28.736686390532544 34.0 9.8
vertex -30.5 34.0 2.3500000000000005
endloop
endfacet
facet normal -0.0 1.0 -0.0
outer loop
vertex 30.5 34.0 2.3500000000000005
vertex 28.736686390532544 34.0 9.8
vertex 36.0 34.0 0.0
endloop
endfacet
facet normal -0.0 1.0 -0.0
outer loop
vertex -17.5 34.0 2.3500000000000005
vertex -19.263313609467456 34.0 9.8
vertex 17.5 34.0 2.3500000000000005
endloop
endfacet
facet normal -0.0 1.0 0.0
outer loop
vertex -36.0 34.0 0.0
vertex -36.0 34.0 9.8
vertex -30.5 34.0 2.3500000000000005
endloop
endfacet
facet normal 0.0 1.0 0.0
outer loop
vertex 30.5 34.0 2.3500000000000005
vertex 36.0 34.0 0.0
vertex -36.0 34.0 0.0
endloop
endfacet
facet normal 0.0 0.9999999999999999 0.0
outer loop
vertex -36.0 34.0 0.0
vertex -30.5 34.0 2.3500000000000005
vertex -17.5 34.0 2.3500000000000005
endloop
endfacet
facet normal -0.0 0.9999999999999999 0.0
outer loop
vertex 17.5 34.0 2.3500000000000005
vertex 30.5 34.0 2.3500000000000005
vertex -36.0 34.0 0.0
endloop
endfacet
facet normal 0.0 1.0 0.0
outer loop
vertex -36.0 34.0 0.0
vertex -17.5 34.0 2.3500000000000005
vertex 17.5 34.0 2.3500000000000005
endloop
endfacet
facet normal 0.0 0.0 -1.0
outer loop
vertex 36.0 0.0 0.0
vertex -36.0 34.0 0.0
vertex 36.0 34.0 0.0
endloop
endfacet
facet normal 0.0 0.0 -1.0
outer loop
vertex -36.0 0.0 0.0
vertex -36.0 34.0 0.0
vertex 36.0 0.0 0.0
endloop
endfacet
facet normal -1.0 0.0 0.0
outer loop
vertex -36.0 0.0 0.0
vertex -36.0 34.0 9.8
vertex -36.0 34.0 0.0
endloop
endfacet
facet normal -1.0 0.0 -0.0
outer loop
vertex -36.0 0.0 9.8
vertex -36.0 34.0 9.8
vertex -36.0 0.0 0.0
endloop
endfacet
facet normal 0.0 -0.0 1.0
outer loop
vertex -36.0 0.0 9.8
vertex -28.736686390532544 34.0 9.8
vertex -36.0 34.0 9.8
endloop
endfacet
facet normal 0.0 -0.0 1.0
outer loop
vertex -28.736686390532544 0.0 9.8
vertex -28.736686390532544 34.0 9.8
vertex -36.0 0.0 9.8
endloop
endfacet
facet normal 0.9731142589794599 0.0 -0.23032290153360005
outer loop
vertex -28.736686390532544 0.0 9.8
vertex -30.5 34.0 2.3500000000000005
vertex -28.736686390532544 34.0 9.8
endloop
endfacet
facet normal 0.9731142589794599 0.0 -0.23032290153360005
outer loop
vertex -30.5 0.0 2.3500000000000005
vertex -30.5 34.0 2.3500000000000005
vertex -28.736686390532544 0.0 9.8
endloop
endfacet
facet normal 0.0 -0.0 1.0
outer loop
vertex -30.5 0.0 2.3500000000000005
vertex -17.5 34.0 2.3500000000000005
vertex -30.5 34.0 2.3500000000000005
endloop
endfacet
facet normal 0.0 -0.0 1.0
outer loop
vertex -17.5 0.0 2.3500000000000005
vertex -17.5 34.0 2.3500000000000005
vertex -30.5 0.0 2.3500000000000005
endloop
endfacet
facet normal -0.9731142589794599 0.0 -0.23032290153360005
outer loop
vertex -17.5 0.0 2.3500000000000005
vertex -19.263313609467456 34.0 9.8
vertex -17.5 34.0 2.3500000000000005
endloop
endfacet
facet normal -0.9731142589794599 0.0 -0.23032290153360005
outer loop
vertex -19.263313609467456 0.0 9.8
vertex -19.263313609467456 34.0 9.8
vertex -17.5 0.0 2.3500000000000005
endloop
endfacet
facet normal 0.0 -0.0 1.0
outer loop
vertex -19.263313609467456 0.0 9.8
vertex 19.263313609467456 34.0 9.8
vertex -19.263313609467456 34.0 9.8
endloop
endfacet
facet normal 0.0 -0.0 1.0
outer loop
vertex 19.263313609467456 0.0 9.8
vertex 19.263313609467456 34.0 9.8
vertex -19.263313609467456 0.0 9.8
endloop
endfacet
facet normal 0.9731142589794599 0.0 -0.23032290153360005
outer loop
vertex 19.263313609467456 0.0 9.8
vertex 17.5 34.0 2.3500000000000005
vertex 19.263313609467456 34.0 9.8
endloop
endfacet
facet normal 0.9731142589794599 0.0 -0.23032290153360005
outer loop
vertex 17.5 0.0 2.3500000000000005
vertex 17.5 34.0 2.3500000000000005
vertex 19.263313609467456 0.0 9.8
endloop
endfacet
facet normal 0.0 -0.0 1.0
outer loop
vertex 17.5 0.0 2.3500000000000005
vertex 30.5 34.0 2.3500000000000005
vertex 17.5 34.0 2.3500000000000005
endloop
endfacet
facet normal 0.0 -0.0 1.0
outer loop
vertex 30.5 0.0 2.3500000000000005
vertex 30.5 34.0 2.3500000000000005
vertex 17.5 0.0 2.3500000000000005
endloop
endfacet
facet normal -0.9731142589794599 0.0 -0.23032290153360005
outer loop
vertex 30.5 0.0 2.3500000000000005
vertex 28.736686390532544 34.0 9.8
vertex 30.5 34.0 2.3500000000000005
endloop
endfacet
facet normal -0.9731142589794599 0.0 -0.23032290153360005
outer loop
vertex 28.736686390532544 0.0 9.8
vertex 28.736686390532544 34.0 9.8
vertex 30.5 0.0 2.3500000000000005
endloop
endfacet
facet normal 1.0 -0.0 0.0
outer loop
vertex 36.0 0.0 9.8
vertex 36.0 34.0 0.0
vertex 36.0 34.0 9.8
endloop
endfacet
facet normal 1.0 0.0 -0.0
outer loop
vertex 36.0 0.0 0.0
vertex 36.0 34.0 0.0
vertex 36.0 0.0 9.8
endloop
endfacet
facet normal 0.0 -0.0 1.0
outer loop
vertex 28.736686390532544 0.0 9.8
vertex 36.0 34.0 9.8
vertex 28.736686390532544 34.0 9.8
endloop
endfacet
facet normal 0.0 -0.0 1.0
outer loop
vertex 36.0 0.0 9.8
vertex 36.0 34.0 9.8
vertex 28.736686390532544 0.0 9.8
endloop
endfacet

endsolid
