solid 
facet normal -0.7071067811865476 -0.7071067811865476 -0.0
outer loop
vertex -32.0 0.0 0.0
vertex -36.0 4.0 9.800000190734863
vertex -36.0 4.0 0.0
endloop
endfacet
facet normal 0.0 -0.9999999999999999 0.0
outer loop
vertex -32.0 0.0 0.0
vertex -30.600000381469727 0.0 2.200000047683716
vertex -32.0 0.0 9.800000190734863
endloop
endfacet
facet normal 0.0 0.0 -1.0
outer loop
vertex -32.0 0.0 0.0
vertex -36.0 4.0 0.0
vertex 32.0 0.0 0.0
endloop
endfacet
facet normal 0.0 -1.0 0.0
outer loop
vertex -32.0 0.0 0.0
vertex 32.0 0.0 0.0
vertex -30.600000381469727 0.0 2.200000047683716
endloop
endfacet
facet normal 0.0 -0.9999999999999999 0.0
outer loop
vertex 32.0 0.0 0.0
vertex -17.399999618530273 0.0 2.200000047683716
vertex -30.600000381469727 0.0 2.200000047683716
endloop
endfacet
facet normal -0.7071067811865476 -0.7071067811865476 0.0
outer loop
vertex -32.0 0.0 0.0
vertex -32.0 0.0 9.800000190734863
vertex -36.0 4.0 9.800000190734863
endloop
endfacet
facet normal 0.0 -1.0 0.0
outer loop
vertex -32.0 0.0 9.800000190734863
vertex -30.600000381469727 0.0 2.200000047683716
vertex -28.72345733642578 0.0 9.800000190734863
endloop
endfacet
facet normal 0.0 -0.0 1.0
outer loop
vertex -32.0 0.0 9.800000190734863
vertex -28.72345733642578 2.5 9.800000190734863
vertex -36.0 4.0 9.800000190734863
endloop
endfacet
facet normal 0.0 0.0 1.0
outer loop
vertex -32.0 0.0 9.800000190734863
vertex -28.72345733642578 0.0 9.800000190734863
vertex -28.72345733642578 2.5 9.800000190734863
endloop
endfacet
facet normal -1.0 0.0 0.0
outer loop
vertex -36.0 4.0 0.0
vertex -36.0 4.0 9.800000190734863
vertex -36.0 30.0 9.800000190734863
endloop
endfacet
facet normal -0.0 0.0 1.0
outer loop
vertex -36.0 4.0 9.800000190734863
vertex -28.72345733642578 2.5 9.800000190734863
vertex -28.525785446166992 31.5 9.800000190734863
endloop
endfacet
facet normal -0.0 0.0 1.0
outer loop
vertex -28.525785446166992 31.5 9.800000190734863
vertex -28.72345733642578 2.5 9.800000190734863
vertex -28.525785446166992 2.5 9.800000190734863
endloop
endfacet
facet normal 0.0 -1.0 0.0
outer loop
vertex -19.27654266357422 0.0 9.800000190734863
vertex -17.399999618530273 0.0 2.200000047683716
vertex 19.27654266357422 0.0 9.800000190734863
endloop
endfacet
facet normal 0.0 0.0 1.0
outer loop
vertex 19.27654266357422 2.5 9.800000190734863
vertex -19.27654266357422 2.5 9.800000190734863
vertex -19.27654266357422 0.0 9.800000190734863
endloop
endfacet
facet normal 0.0 0.0 1.0
outer loop
vertex -19.474214553833008 2.5 9.800000190734863
vertex -19.27654266357422 2.5 9.800000190734863
vertex 19.474214553833008 31.5 9.800000190734863
endloop
endfacet
facet normal 0.0 0.0 -1.0
outer loop
vertex -36.0 4.0 0.0
vertex -36.0 30.0 0.0
vertex -32.0 34.0 0.0
endloop
endfacet
facet normal 0.0 0.0 -1.0
outer loop
vertex -36.0 4.0 0.0
vertex -32.0 34.0 0.0
vertex -2.9000000953674316 31.0 0.0
endloop
endfacet
facet normal -1.0 0.0 0.0
outer loop
vertex -36.0 4.0 0.0
vertex -36.0 30.0 9.800000190734863
vertex -36.0 30.0 0.0
endloop
endfacet
facet normal 0.0 0.9999999999999999 0.0
outer loop
vertex -32.0 34.0 0.0
vertex -30.600000381469727 34.0 2.200000047683716
vertex -17.399999618530273 34.0 2.200000047683716
endloop
endfacet
facet normal -0.7071067811865476 0.7071067811865476 0.0
outer loop
vertex -36.0 30.0 0.0
vertex -32.0 34.0 9.800000190734863
vertex -32.0 34.0 0.0
endloop
endfacet
facet normal -0.0 0.9999999999999999 0.0
outer loop
vertex -32.0 34.0 0.0
vertex -32.0 34.0 9.800000190734863
vertex -30.600000381469727 34.0 2.200000047683716
endloop
endfacet
facet normal 0.0 0.0 -1.0
outer loop
vertex -36.0 4.0 0.0
vertex -2.9000000953674316 31.0 0.0
vertex -1.100000023841858 31.0 0.0
endloop
endfacet
facet normal 0.0 0.0 -1.0
outer loop
vertex -36.0 4.0 0.0
vertex -1.100000023841858 31.0 0.0
vertex 1.100000023841858 31.0 0.0
endloop
endfacet
facet normal 0.0 0.0 -1.0
outer loop
vertex -36.0 4.0 0.0
vertex 1.100000023841858 31.0 0.0
vertex 2.9000000953674316 31.0 0.0
endloop
endfacet
facet normal -0.0 1.0 0.0
outer loop
vertex -32.0 34.0 0.0
vertex -17.399999618530273 34.0 2.200000047683716
vertex -2.9000000953674316 34.0 0.0
endloop
endfacet
facet normal 0.0 0.0 -1.0
outer loop
vertex -32.0 34.0 0.0
vertex -2.9000000953674316 34.0 0.0
vertex -2.9000000953674316 31.0 0.0
endloop
endfacet
facet normal -0.0 -0.0 -1.0
outer loop
vertex -1.100000023841858 34.0 0.0
vertex 1.100000023841858 31.0 0.0
vertex -1.100000023841858 31.0 0.0
endloop
endfacet
facet normal 0.0 1.0 0.0
outer loop
vertex -19.27654266357422 34.0 9.800000190734863
vertex -2.9000000953674316 34.0 0.0
vertex -17.399999618530273 34.0 2.200000047683716
endloop
endfacet
facet normal -0.0 1.0 0.0
outer loop
vertex -1.100000023841858 34.0 0.0
vertex -1.100000023841858 34.0 9.800000190734863
vertex 1.100000023841858 34.0 0.0
endloop
endfacet
facet normal 0.0 -0.0 1.0
outer loop
vertex -36.0 4.0 9.800000190734863
vertex -32.0 34.0 9.800000190734863
vertex -36.0 30.0 9.800000190734863
endloop
endfacet
facet normal 0.0 -0.0 1.0
outer loop
vertex -36.0 4.0 9.800000190734863
vertex -28.72345733642578 34.0 9.800000190734863
vertex -32.0 34.0 9.800000190734863
endloop
endfacet
facet normal 0.0 -0.0 1.0
outer loop
vertex -36.0 4.0 9.800000190734863
vertex -28.525785446166992 31.5 9.800000190734863
vertex -28.72345733642578 31.5 9.800000190734863
endloop
endfacet
facet normal 0.0 0.0 0.9999999999999999
outer loop
vertex -36.0 4.0 9.800000190734863
vertex -28.72345733642578 31.5 9.800000190734863
vertex -28.72345733642578 34.0 9.800000190734863
endloop
endfacet
facet normal 0.0 -0.0 1.0
outer loop
vertex -19.474214553833008 2.5 9.800000190734863
vertex -19.27654266357422 31.5 9.800000190734863
vertex -19.474214553833008 31.5 9.800000190734863
endloop
endfacet
facet normal -0.7071067811865476 0.7071067811865476 0.0
outer loop
vertex -36.0 30.0 0.0
vertex -36.0 30.0 9.800000190734863
vertex -32.0 34.0 9.800000190734863
endloop
endfacet
facet normal -0.0 1.0 0.0
outer loop
vertex -32.0 34.0 9.800000190734863
vertex -28.72345733642578 34.0 9.800000190734863
vertex -30.600000381469727 34.0 2.200000047683716
endloop
endfacet
facet normal 0.0 -0.0 1.0
outer loop
vertex -19.474214553833008 2.5 9.800000190734863
vertex -2.9000000953674316 31.0 9.800000190734863
vertex -19.27654266357422 31.5 9.800000190734863
endloop
endfacet
facet normal 0.0 -0.0 1.0
outer loop
vertex -19.474214553833008 2.5 9.800000190734863
vertex -1.100000023841858 31.0 9.800000190734863
vertex -2.9000000953674316 31.0 9.800000190734863
endloop
endfacet
facet normal 0.0 -0.0 1.0
outer loop
vertex -19.474214553833008 2.5 9.800000190734863
vertex 1.100000023841858 31.0 9.800000190734863
vertex -1.100000023841858 31.0 9.800000190734863
endloop
endfacet
facet normal 0.0 -0.0 1.0
outer loop
vertex -19.474214553833008 2.5 9.800000190734863
vertex 2.9000000953674316 31.0 9.800000190734863
vertex 1.100000023841858 31.0 9.800000190734863
endloop
endfacet
facet normal 0.0 1.0 0.0
outer loop
vertex -2.9000000953674316 34.0 9.800000190734863
vertex -2.9000000953674316 34.0 0.0
vertex -19.27654266357422 34.0 9.800000190734863
endloop
endfacet
facet normal -0.0 0.0 1.0
outer loop
vertex -19.27654266357422 34.0 9.800000190734863
vertex -19.27654266357422 31.5 9.800000190734863
vertex -2.9000000953674316 34.0 9.800000190734863
endloop
endfacet
facet normal 0.0 0.0 1.0
outer loop
vertex -2.9000000953674316 34.0 9.800000190734863
vertex -19.27654266357422 31.5 9.800000190734863
vertex -2.9000000953674316 31.0 9.800000190734863
endloop
endfacet
facet normal -0.0 0.0 1.0
outer loop
vertex -1.100000023841858 34.0 9.800000190734863
vertex -1.100000023841858 31.0 9.800000190734863
vertex 1.100000023841858 34.0 9.800000190734863
endloop
endfacet
facet normal 0.0 -1.0 0.0
outer loop
vertex 32.0 0.0 0.0
vertex 17.399999618530273 0.0 2.200000047683716
vertex -17.399999618530273 0.0 2.200000047683716
endloop
endfacet
facet normal 0.0 -1.0 -0.0
outer loop
vertex 19.27654266357422 0.0 9.800000190734863
vertex -17.399999618530273 0.0 2.200000047683716
vertex 17.399999618530273 0.0 2.200000047683716
endloop
endfacet
facet normal 0.0 -0.0 -1.0
outer loop
vertex -36.0 4.0 0.0
vertex 36.0 30.0 0.0
vertex 32.0 0.0 0.0
endloop
endfacet
facet normal 0.0 -0.9999999999999999 0.0
outer loop
vertex 32.0 0.0 0.0
vertex 30.600000381469727 0.0 2.200000047683716
vertex 17.399999618530273 0.0 2.200000047683716
endloop
endfacet
facet normal 0.7071067811865476 -0.7071067811865476 0.0
outer loop
vertex 32.0 0.0 0.0
vertex 36.0 4.0 0.0
vertex 32.0 0.0 9.800000190734863
endloop
endfacet
facet normal -0.0 -0.9999999999999999 0.0
outer loop
vertex 32.0 0.0 0.0
vertex 32.0 0.0 9.800000190734863
vertex 30.600000381469727 0.0 2.200000047683716
endloop
endfacet
facet normal 0.0 0.0 -1.0
outer loop
vertex 32.0 0.0 0.0
vertex 36.0 30.0 0.0
vertex 36.0 4.0 0.0
endloop
endfacet
facet normal 1.0 0.0 -0.0
outer loop
vertex 36.0 4.0 0.0
vertex 36.0 30.0 0.0
vertex 36.0 4.0 9.800000190734863
endloop
endfacet
facet normal 0.0 0.0 1.0
outer loop
vertex -19.27654266357422 0.0 9.800000190734863
vertex 19.27654266357422 0.0 9.800000190734863
vertex 19.27654266357422 2.5 9.800000190734863
endloop
endfacet
facet normal 0.0 0.0 1.0
outer loop
vertex -19.27654266357422 2.5 9.800000190734863
vertex 19.27654266357422 2.5 9.800000190734863
vertex 19.474214553833008 31.5 9.800000190734863
endloop
endfacet
facet normal -0.0 -1.0 -0.0
outer loop
vertex 32.0 0.0 9.800000190734863
vertex 28.72345733642578 0.0 9.800000190734863
vertex 30.600000381469727 0.0 2.200000047683716
endloop
endfacet
facet normal 0.7071067811865476 -0.7071067811865476 0.0
outer loop
vertex 36.0 4.0 0.0
vertex 36.0 4.0 9.800000190734863
vertex 32.0 0.0 9.800000190734863
endloop
endfacet
facet normal 0.0 0.0 1.0
outer loop
vertex 19.27654266357422 2.5 9.800000190734863
vertex 19.474214553833008 2.5 9.800000190734863
vertex 19.474214553833008 31.5 9.800000190734863
endloop
endfacet
facet normal 0.0 0.0 0.9999999999999999
outer loop
vertex 36.0 30.0 9.800000190734863
vertex 28.72345733642578 2.5 9.800000190734863
vertex 28.72345733642578 0.0 9.800000190734863
endloop
endfacet
facet normal -0.0 0.0 1.0
outer loop
vertex 36.0 30.0 9.800000190734863
vertex 28.525785446166992 2.5 9.800000190734863
vertex 28.72345733642578 2.5 9.800000190734863
endloop
endfacet
facet normal 0.0 -0.0 1.0
outer loop
vertex 32.0 0.0 9.800000190734863
vertex 36.0 30.0 9.800000190734863
vertex 28.72345733642578 0.0 9.800000190734863
endloop
endfacet
facet normal 0.0 0.0 1.0
outer loop
vertex 32.0 0.0 9.800000190734863
vertex 36.0 4.0 9.800000190734863
vertex 36.0 30.0 9.800000190734863
endloop
endfacet
facet normal 0.0 0.0 -1.0
outer loop
vertex -36.0 4.0 0.0
vertex 2.9000000953674316 31.0 0.0
vertex 36.0 30.0 0.0
endloop
endfacet
facet normal 0.0 0.0 -1.0
outer loop
vertex -1.100000023841858 34.0 0.0
vertex 1.100000023841858 34.0 0.0
vertex 1.100000023841858 31.0 0.0
endloop
endfacet
facet normal 0.0 0.0 -1.0
outer loop
vertex 36.0 30.0 0.0
vertex 2.9000000953674316 31.0 0.0
vertex 2.9000000953674316 34.0 0.0
endloop
endfacet
facet normal 0.0 1.0 -0.0
outer loop
vertex 32.0 34.0 0.0
vertex 2.9000000953674316 34.0 0.0
vertex 17.399999618530273 34.0 2.200000047683716
endloop
endfacet
facet normal -0.0 1.0 0.0
outer loop
vertex 2.9000000953674316 34.0 0.0
vertex 2.9000000953674316 34.0 9.800000190734863
vertex 17.399999618530273 34.0 2.200000047683716
endloop
endfacet
facet normal 0.0 0.0 -0.9999999999999999
outer loop
vertex 36.0 30.0 0.0
vertex 2.9000000953674316 34.0 0.0
vertex 32.0 34.0 0.0
endloop
endfacet
facet normal 0.0 0.9999999999999999 -0.0
outer loop
vertex 32.0 34.0 0.0
vertex 17.399999618530273 34.0 2.200000047683716
vertex 30.600000381469727 34.0 2.200000047683716
endloop
endfacet
facet normal 0.7071067811865476 0.7071067811865476 0.0
outer loop
vertex 36.0 30.0 0.0
vertex 32.0 34.0 0.0
vertex 36.0 30.0 9.800000190734863
endloop
endfacet
facet normal 0.0 0.9999999999999999 -0.0
outer loop
vertex 32.0 34.0 0.0
vertex 30.600000381469727 34.0 2.200000047683716
vertex 32.0 34.0 9.800000190734863
endloop
endfacet
facet normal 0.0 -0.0 1.0
outer loop
vertex -19.474214553833008 2.5 9.800000190734863
vertex 19.474214553833008 31.5 9.800000190734863
vertex 2.9000000953674316 31.0 9.800000190734863
endloop
endfacet
facet normal -0.0 1.0 0.0
outer loop
vertex -1.100000023841858 34.0 9.800000190734863
vertex 1.100000023841858 34.0 9.800000190734863
vertex 1.100000023841858 34.0 0.0
endloop
endfacet
facet normal -0.0 1.0 0.0
outer loop
vertex 2.9000000953674316 34.0 9.800000190734863
vertex 19.27654266357422 34.0 9.800000190734863
vertex 17.399999618530273 34.0 2.200000047683716
endloop
endfacet
facet normal -0.0 0.0 1.0
outer loop
vertex 1.100000023841858 34.0 9.800000190734863
vertex -1.100000023841858 31.0 9.800000190734863
vertex 1.100000023841858 31.0 9.800000190734863
endloop
endfacet
facet normal -0.0 0.0 1.0
outer loop
vertex 2.9000000953674316 34.0 9.800000190734863
vertex 2.9000000953674316 31.0 9.800000190734863
vertex 19.27654266357422 34.0 9.800000190734863
endloop
endfacet
facet normal 0.0 -0.0 0.9999999999999999
outer loop
vertex 2.9000000953674316 31.0 9.800000190734863
vertex 19.474214553833008 31.5 9.800000190734863
vertex 19.27654266357422 31.5 9.800000190734863
endloop
endfacet
facet normal 0.0 0.0 1.0
outer loop
vertex 2.9000000953674316 31.0 9.800000190734863
vertex 19.27654266357422 31.5 9.800000190734863
vertex 19.27654266357422 34.0 9.800000190734863
endloop
endfacet
facet normal 1.0 -0.0 0.0
outer loop
vertex 36.0 4.0 9.800000190734863
vertex 36.0 30.0 0.0
vertex 36.0 30.0 9.800000190734863
endloop
endfacet
facet normal 0.0 -0.0 1.0
outer loop
vertex 28.525785446166992 2.5 9.800000190734863
vertex 28.72345733642578 31.5 9.800000190734863
vertex 28.525785446166992 31.5 9.800000190734863
endloop
endfacet
facet normal 0.0 0.0 1.0
outer loop
vertex 36.0 30.0 9.800000190734863
vertex 28.72345733642578 31.5 9.800000190734863
vertex 28.525785446166992 2.5 9.800000190734863
endloop
endfacet
facet normal 0.0 1.0 0.0
outer loop
vertex 32.0 34.0 9.800000190734863
vertex 30.600000381469727 34.0 2.200000047683716
vertex 28.72345733642578 34.0 9.800000190734863
endloop
endfacet
facet normal 0.7071067811865476 0.7071067811865476 -0.0
outer loop
vertex 32.0 34.0 0.0
vertex 32.0 34.0 9.800000190734863
vertex 36.0 30.0 9.800000190734863
endloop
endfacet
facet normal 0.0 0.0 1.0
outer loop
vertex 32.0 34.0 9.800000190734863
vertex 28.72345733642578 34.0 9.800000190734863
vertex 28.72345733642578 31.5 9.800000190734863
endloop
endfacet
facet normal 0.0 0.0 1.0
outer loop
vertex 36.0 30.0 9.800000190734863
vertex 32.0 34.0 9.800000190734863
vertex 28.72345733642578 31.5 9.800000190734863
endloop
endfacet
facet normal -0.0 0.0 1.0
outer loop
vertex -30.600000381469727 2.5 2.200000047683716
vertex -30.600000381469727 0.0 2.200000047683716
vertex -17.399999618530273 2.5 2.200000047683716
endloop
endfacet
facet normal 0.0 -1.0 0.0
outer loop
vertex -30.600000381469727 2.5 2.200000047683716
vertex -17.600000381469727 2.5 2.3499999046325684
vertex -30.399999618530273 2.5 2.3499999046325684
endloop
endfacet
facet normal -0.0 0.0 1.0
outer loop
vertex -17.399999618530273 2.5 2.200000047683716
vertex -30.600000381469727 0.0 2.200000047683716
vertex -17.399999618530273 0.0 2.200000047683716
endloop
endfacet
facet normal 0.0 -1.0 0.0
outer loop
vertex -30.600000381469727 2.5 2.200000047683716
vertex -17.399999618530273 2.5 2.200000047683716
vertex -17.600000381469727 2.5 2.3499999046325684
endloop
endfacet
facet normal 0.9708434494630169 0.0 -0.23971440639801006
outer loop
vertex -30.600000381469727 2.5 2.200000047683716
vertex -28.72345733642578 0.0 9.800000190734863
vertex -30.600000381469727 0.0 2.200000047683716
endloop
endfacet
facet normal 0.0 -1.0 0.0
outer loop
vertex -30.600000381469727 2.5 2.200000047683716
vertex -30.399999618530273 2.5 2.3499999046325684
vertex -28.72345733642578 2.5 9.800000190734863
endloop
endfacet
facet normal -0.9708434494630169 -0.0 -0.23971440639801006
outer loop
vertex -17.399999618530273 2.5 2.200000047683716
vertex -17.399999618530273 0.0 2.200000047683716
vertex -19.27654266357422 2.5 9.800000190734863
endloop
endfacet
facet normal -0.0 -1.0 -0.0
outer loop
vertex -17.399999618530273 2.5 2.200000047683716
vertex -19.27654266357422 2.5 9.800000190734863
vertex -17.600000381469727 2.5 2.3499999046325684
endloop
endfacet
facet normal 0.9708434494630169 0.0 -0.23971440639801006
outer loop
vertex -30.600000381469727 2.5 2.200000047683716
vertex -28.72345733642578 2.5 9.800000190734863
vertex -28.72345733642578 0.0 9.800000190734863
endloop
endfacet
facet normal 0.0 -1.0 0.0
outer loop
vertex -30.399999618530273 2.5 2.3499999046325684
vertex -28.525785446166992 2.5 9.800000190734863
vertex -28.72345733642578 2.5 9.800000190734863
endloop
endfacet
facet normal -0.9708434494630169 0.0 -0.23971440639801006
outer loop
vertex -19.27654266357422 2.5 9.800000190734863
vertex -17.399999618530273 0.0 2.200000047683716
vertex -19.27654266357422 0.0 9.800000190734863
endloop
endfacet
facet normal 0.0 -1.0 0.0
outer loop
vertex -17.600000381469727 2.5 2.3499999046325684
vertex -19.27654266357422 2.5 9.800000190734863
vertex -19.474214553833008 2.5 9.800000190734863
endloop
endfacet
facet normal 0.0 -0.0 1.0
outer loop
vertex -30.399999618530273 2.5 2.3499999046325684
vertex -17.600000381469727 2.5 2.3499999046325684
vertex -30.399999618530273 31.5 2.3499999046325684
endloop
endfacet
facet normal -0.9697826504203906 0.0 -0.2439705124468991
outer loop
vertex -17.600000381469727 2.5 2.3499999046325684
vertex -19.474214553833008 2.5 9.800000190734863
vertex -17.600000381469727 31.5 2.3499999046325684
endloop
endfacet
facet normal 0.9697826504203906 0.0 -0.2439705124468991
outer loop
vertex -30.399999618530273 2.5 2.3499999046325684
vertex -28.525785446166992 31.5 9.800000190734863
vertex -28.525785446166992 2.5 9.800000190734863
endloop
endfacet
facet normal 0.0 -0.0 1.0
outer loop
vertex -17.600000381469727 2.5 2.3499999046325684
vertex -17.600000381469727 31.5 2.3499999046325684
vertex -30.399999618530273 31.5 2.3499999046325684
endloop
endfacet
facet normal 0.9697826504203906 0.0 -0.2439705124468991
outer loop
vertex -30.399999618530273 2.5 2.3499999046325684
vertex -30.399999618530273 31.5 2.3499999046325684
vertex -28.525785446166992 31.5 9.800000190734863
endloop
endfacet
facet normal -0.9697826504203906 0.0 -0.2439705124468991
outer loop
vertex -17.600000381469727 31.5 2.3499999046325684
vertex -19.474214553833008 2.5 9.800000190734863
vertex -19.474214553833008 31.5 9.800000190734863
endloop
endfacet
facet normal -0.0 1.0 0.0
outer loop
vertex -30.600000381469727 31.5 2.200000047683716
vertex -30.399999618530273 31.5 2.3499999046325684
vertex -17.399999618530273 31.5 2.200000047683716
endloop
endfacet
facet normal 0.0 -0.0 1.0
outer loop
vertex -30.600000381469727 31.5 2.200000047683716
vertex -17.399999618530273 34.0 2.200000047683716
vertex -30.600000381469727 34.0 2.200000047683716
endloop
endfacet
facet normal -0.0 1.0 0.0
outer loop
vertex -30.399999618530273 31.5 2.3499999046325684
vertex -17.600000381469727 31.5 2.3499999046325684
vertex -17.399999618530273 31.5 2.200000047683716
endloop
endfacet
facet normal 0.0 0.0 1.0
outer loop
vertex -30.600000381469727 31.5 2.200000047683716
vertex -17.399999618530273 31.5 2.200000047683716
vertex -17.399999618530273 34.0 2.200000047683716
endloop
endfacet
facet normal -0.0 1.0 0.0
outer loop
vertex -30.600000381469727 31.5 2.200000047683716
vertex -28.72345733642578 31.5 9.800000190734863
vertex -30.399999618530273 31.5 2.3499999046325684
endloop
endfacet
facet normal 0.9708434494630169 0.0 -0.23971440639801006
outer loop
vertex -30.600000381469727 31.5 2.200000047683716
vertex -30.600000381469727 34.0 2.200000047683716
vertex -28.72345733642578 31.5 9.800000190734863
endloop
endfacet
facet normal 0.0 1.0 0.0
outer loop
vertex -17.399999618530273 31.5 2.200000047683716
vertex -17.600000381469727 31.5 2.3499999046325684
vertex -19.27654266357422 31.5 9.800000190734863
endloop
endfacet
facet normal -0.9708434494630169 0.0 -0.23971440639801006
outer loop
vertex -17.399999618530273 31.5 2.200000047683716
vertex -19.27654266357422 34.0 9.800000190734863
vertex -17.399999618530273 34.0 2.200000047683716
endloop
endfacet
facet normal 0.0 1.0 0.0
outer loop
vertex -30.399999618530273 31.5 2.3499999046325684
vertex -28.72345733642578 31.5 9.800000190734863
vertex -28.525785446166992 31.5 9.800000190734863
endloop
endfacet
facet normal 0.9708434494630169 0.0 -0.23971440639801006
outer loop
vertex -28.72345733642578 31.5 9.800000190734863
vertex -30.600000381469727 34.0 2.200000047683716
vertex -28.72345733642578 34.0 9.800000190734863
endloop
endfacet
facet normal 0.0 1.0 -0.0
outer loop
vertex -17.600000381469727 31.5 2.3499999046325684
vertex -19.474214553833008 31.5 9.800000190734863
vertex -19.27654266357422 31.5 9.800000190734863
endloop
endfacet
facet normal -0.9708434494630169 0.0 -0.23971440639801006
outer loop
vertex -17.399999618530273 31.5 2.200000047683716
vertex -19.27654266357422 31.5 9.800000190734863
vertex -19.27654266357422 34.0 9.800000190734863
endloop
endfacet
facet normal -0.0 0.0 1.0
outer loop
vertex 17.399999618530273 2.5 2.200000047683716
vertex 17.399999618530273 0.0 2.200000047683716
vertex 30.600000381469727 2.5 2.200000047683716
endloop
endfacet
facet normal 0.0 -1.0 0.0
outer loop
vertex 17.399999618530273 2.5 2.200000047683716
vertex 30.600000381469727 2.5 2.200000047683716
vertex 17.600000381469727 2.5 2.3499999046325684
endloop
endfacet
facet normal -0.0 0.0 1.0
outer loop
vertex 30.600000381469727 2.5 2.200000047683716
vertex 17.399999618530273 0.0 2.200000047683716
vertex 30.600000381469727 0.0 2.200000047683716
endloop
endfacet
facet normal 0.0 -1.0 0.0
outer loop
vertex 17.600000381469727 2.5 2.3499999046325684
vertex 30.600000381469727 2.5 2.200000047683716
vertex 30.399999618530273 2.5 2.3499999046325684
endloop
endfacet
facet normal 0.9708434494630169 0.0 -0.23971440639801006
outer loop
vertex 17.399999618530273 2.5 2.200000047683716
vertex 19.27654266357422 0.0 9.800000190734863
vertex 17.399999618530273 0.0 2.200000047683716
endloop
endfacet
facet normal 0.0 -1.0 0.0
outer loop
vertex 17.399999618530273 2.5 2.200000047683716
vertex 17.600000381469727 2.5 2.3499999046325684
vertex 19.27654266357422 2.5 9.800000190734863
endloop
endfacet
facet normal -0.9708434494630169 -0.0 -0.23971440639801006
outer loop
vertex 30.600000381469727 2.5 2.200000047683716
vertex 30.600000381469727 0.0 2.200000047683716
vertex 28.72345733642578 2.5 9.800000190734863
endloop
endfacet
facet normal -0.0 -1.0 -0.0
outer loop
vertex 30.600000381469727 2.5 2.200000047683716
vertex 28.72345733642578 2.5 9.800000190734863
vertex 30.399999618530273 2.5 2.3499999046325684
endloop
endfacet
facet normal 0.9708434494630169 0.0 -0.23971440639801006
outer loop
vertex 17.399999618530273 2.5 2.200000047683716
vertex 19.27654266357422 2.5 9.800000190734863
vertex 19.27654266357422 0.0 9.800000190734863
endloop
endfacet
facet normal 0.0 -1.0 0.0
outer loop
vertex 17.600000381469727 2.5 2.3499999046325684
vertex 19.474214553833008 2.5 9.800000190734863
vertex 19.27654266357422 2.5 9.800000190734863
endloop
endfacet
facet normal -0.9708434494630169 0.0 -0.23971440639801006
outer loop
vertex 28.72345733642578 2.5 9.800000190734863
vertex 30.600000381469727 0.0 2.200000047683716
vertex 28.72345733642578 0.0 9.800000190734863
endloop
endfacet
facet normal 0.0 -1.0 0.0
outer loop
vertex 30.399999618530273 2.5 2.3499999046325684
vertex 28.72345733642578 2.5 9.800000190734863
vertex 28.525785446166992 2.5 9.800000190734863
endloop
endfacet
facet normal 0.0 0.0 1.0
outer loop
vertex 17.600000381469727 2.5 2.3499999046325684
vertex 30.399999618530273 2.5 2.3499999046325684
vertex 30.399999618530273 31.5 2.3499999046325684
endloop
endfacet
facet normal -0.9697826504203906 0.0 -0.2439705124468991
outer loop
vertex 30.399999618530273 2.5 2.3499999046325684
vertex 28.525785446166992 2.5 9.800000190734863
vertex 30.399999618530273 31.5 2.3499999046325684
endloop
endfacet
facet normal 0.9697826504203906 0.0 -0.2439705124468991
outer loop
vertex 17.600000381469727 2.5 2.3499999046325684
vertex 19.474214553833008 31.5 9.800000190734863
vertex 19.474214553833008 2.5 9.800000190734863
endloop
endfacet
facet normal 0.0 -0.0 1.0
outer loop
vertex 17.600000381469727 2.5 2.3499999046325684
vertex 30.399999618530273 31.5 2.3499999046325684
vertex 17.600000381469727 31.5 2.3499999046325684
endloop
endfacet
facet normal 0.9697826504203906 0.0 -0.2439705124468991
outer loop
vertex 17.600000381469727 2.5 2.3499999046325684
vertex 17.600000381469727 31.5 2.3499999046325684
vertex 19.474214553833008 31.5 9.800000190734863
endloop
endfacet
facet normal -0.9697826504203906 0.0 -0.2439705124468991
outer loop
vertex 30.399999618530273 31.5 2.3499999046325684
vertex 28.525785446166992 2.5 9.800000190734863
vertex 28.525785446166992 31.5 9.800000190734863
endloop
endfacet
facet normal 0.0 1.0 0.0
outer loop
vertex 17.399999618530273 31.5 2.200000047683716
vertex 17.600000381469727 31.5 2.3499999046325684
vertex 30.399999618530273 31.5 2.3499999046325684
endloop
endfacet
facet normal 0.0 -0.0 1.0
outer loop
vertex 17.399999618530273 31.5 2.200000047683716
vertex 30.600000381469727 34.0 2.200000047683716
vertex 17.399999618530273 34.0 2.200000047683716
endloop
endfacet
facet normal -0.0 1.0 0.0
outer loop
vertex 17.399999618530273 31.5 2.200000047683716
vertex 30.399999618530273 31.5 2.3499999046325684
vertex 30.600000381469727 31.5 2.200000047683716
endloop
endfacet
facet normal 0.0 0.0 1.0
outer loop
vertex 17.399999618530273 31.5 2.200000047683716
vertex 30.600000381469727 31.5 2.200000047683716
vertex 30.600000381469727 34.0 2.200000047683716
endloop
endfacet
facet normal -0.0 1.0 0.0
outer loop
vertex 17.399999618530273 31.5 2.200000047683716
vertex 19.27654266357422 31.5 9.800000190734863
vertex 17.600000381469727 31.5 2.3499999046325684
endloop
endfacet
facet normal 0.9708434494630169 0.0 -0.23971440639801006
outer loop
vertex 17.399999618530273 31.5 2.200000047683716
vertex 17.399999618530273 34.0 2.200000047683716
vertex 19.27654266357422 31.5 9.800000190734863
endloop
endfacet
facet normal 0.0 1.0 0.0
outer loop
vertex 30.600000381469727 31.5 2.200000047683716
vertex 30.399999618530273 31.5 2.3499999046325684
vertex 28.525785446166992 31.5 9.800000190734863
endloop
endfacet
facet normal -0.9708434494630169 0.0 -0.23971440639801006
outer loop
vertex 30.600000381469727 31.5 2.200000047683716
vertex 28.72345733642578 34.0 9.800000190734863
vertex 30.600000381469727 34.0 2.200000047683716
endloop
endfacet
facet normal 0.0 1.0 0.0
outer loop
vertex 17.600000381469727 31.5 2.3499999046325684
vertex 19.27654266357422 31.5 9.800000190734863
vertex 19.474214553833008 31.5 9.800000190734863
endloop
endfacet
facet normal 0.9708434494630169 0.0 -0.23971440639801006
outer loop
vertex 19.27654266357422 31.5 9.800000190734863
vertex 17.399999618530273 34.0 2.200000047683716
vertex 19.27654266357422 34.0 9.800000190734863
endloop
endfacet
facet normal 0.0 0.9999999999999999 -0.0
outer loop
vertex 30.600000381469727 31.5 2.200000047683716
vertex 28.525785446166992 31.5 9.800000190734863
vertex 28.72345733642578 31.5 9.800000190734863
endloop
endfacet
facet normal -0.9708434494630169 0.0 -0.23971440639801006
outer loop
vertex 30.600000381469727 31.5 2.200000047683716
vertex 28.72345733642578 31.5 9.800000190734863
vertex 28.72345733642578 34.0 9.800000190734863
endloop
endfacet
facet normal 0.0 1.0 -0.0
outer loop
vertex -1.100000023841858 31.0 0.0
vertex -2.9000000953674316 31.0 0.0
vertex -2.9000000953674316 31.0 9.800000190734863
endloop
endfacet
facet normal 0.9999999999999999 -0.0 0.0
outer loop
vertex -2.9000000953674316 34.0 9.800000190734863
vertex -2.9000000953674316 31.0 0.0
vertex -2.9000000953674316 34.0 0.0
endloop
endfacet
facet normal -0.9999999999999999 0.0 0.0
outer loop
vertex -1.100000023841858 34.0 0.0
vertex -1.100000023841858 31.0 0.0
vertex -1.100000023841858 31.0 9.800000190734863
endloop
endfacet
facet normal 0.0 1.0 -0.0
outer loop
vertex -1.100000023841858 31.0 0.0
vertex -2.9000000953674316 31.0 9.800000190734863
vertex -1.100000023841858 31.0 9.800000190734863
endloop
endfacet
facet normal 0.9999999999999999 0.0 0.0
outer loop
vertex -2.9000000953674316 34.0 9.800000190734863
vertex -2.9000000953674316 31.0 9.800000190734863
vertex -2.9000000953674316 31.0 0.0
endloop
endfacet
facet normal -0.9999999999999999 0.0 0.0
outer loop
vertex -1.100000023841858 34.0 0.0
vertex -1.100000023841858 31.0 9.800000190734863
vertex -1.100000023841858 34.0 9.800000190734863
endloop
endfacet
facet normal 0.0 1.0 -0.0
outer loop
vertex 2.9000000953674316 31.0 0.0
vertex 1.100000023841858 31.0 0.0
vertex 1.100000023841858 31.0 9.800000190734863
endloop
endfacet
facet normal 0.9999999999999999 -0.0 0.0
outer loop
vertex 1.100000023841858 34.0 9.800000190734863
vertex 1.100000023841858 31.0 0.0
vertex 1.100000023841858 34.0 0.0
endloop
endfacet
facet normal -0.9999999999999999 0.0 0.0
outer loop
vertex 2.9000000953674316 34.0 0.0
vertex 2.9000000953674316 31.0 0.0
vertex 2.9000000953674316 31.0 9.800000190734863
endloop
endfacet
facet normal 0.0 1.0 -0.0
outer loop
vertex 2.9000000953674316 31.0 0.0
vertex 1.100000023841858 31.0 9.800000190734863
vertex 2.9000000953674316 31.0 9.800000190734863
endloop
endfacet
facet normal 0.9999999999999999 0.0 0.0
outer loop
vertex 1.100000023841858 34.0 9.800000190734863
vertex 1.100000023841858 31.0 9.800000190734863
vertex 1.100000023841858 31.0 0.0
endloop
endfacet
facet normal -0.9999999999999999 0.0 0.0
outer loop
vertex 2.9000000953674316 34.0 0.0
vertex 2.9000000953674316 31.0 9.800000190734863
vertex 2.9000000953674316 34.0 9.800000190734863
endloop
endfacet

endsolid
