solid 
facet normal -0.7071067811865476 -0.7071067811865476 -0.0
outer loop
vertex -32.0 0.0 0.0
vertex -36.0 4.0 9.800000190734863
vertex -36.0 4.0 0.0
endloop
endfacet
facet normal 0.0 -0.9999999999999999 0.0
outer loop
vertex -32.0 0.0 0.0
vertex -30.600000381469727 0.0 2.0999999046325684
vertex -32.0 0.0 9.800000190734863
endloop
endfacet
facet normal 0.0 0.0 -1.0
outer loop
vertex -32.0 0.0 0.0
vertex -36.0 4.0 0.0
vertex 32.0 0.0 0.0
endloop
endfacet
facet normal 0.0 -1.0 0.0
outer loop
vertex -32.0 0.0 0.0
vertex 32.0 0.0 0.0
vertex -30.600000381469727 0.0 2.0999999046325684
endloop
endfacet
facet normal 0.0 -1.0 0.0
outer loop
vertex 32.0 0.0 0.0
vertex -17.399999618530273 0.0 2.0999999046325684
vertex -30.600000381469727 0.0 2.0999999046325684
endloop
endfacet
facet normal -0.7071067811865476 -0.7071067811865476 0.0
outer loop
vertex -32.0 0.0 0.0
vertex -32.0 0.0 9.800000190734863
vertex -36.0 4.0 9.800000190734863
endloop
endfacet
facet normal 0.0 -1.0 0.0
outer loop
vertex -32.0 0.0 9.800000190734863
vertex -30.600000381469727 0.0 2.0999999046325684
vertex -28.721952438354492 0.0 9.800000190734863
endloop
endfacet
facet normal 0.0 -0.0 1.0
outer loop
vertex -32.0 0.0 9.800000190734863
vertex -28.721952438354492 2.5 9.800000190734863
vertex -36.0 4.0 9.800000190734863
endloop
endfacet
facet normal 0.0 0.0 1.0
outer loop
vertex -32.0 0.0 9.800000190734863
vertex -28.721952438354492 0.0 9.800000190734863
vertex -28.721952438354492 2.5 9.800000190734863
endloop
endfacet
facet normal -1.0 0.0 0.0
outer loop
vertex -36.0 4.0 0.0
vertex -36.0 4.0 9.800000190734863
vertex -36.0 30.0 9.800000190734863
endloop
endfacet
facet normal -0.0 0.0 1.0
outer loop
vertex -36.0 4.0 9.800000190734863
vertex -28.721952438354492 2.5 9.800000190734863
vertex -28.52422332763672 31.5 9.800000190734863
endloop
endfacet
facet normal -0.0 0.0 1.0
outer loop
vertex -28.52422332763672 31.5 9.800000190734863
vertex -28.721952438354492 2.5 9.800000190734863
vertex -28.52422332763672 2.5 9.800000190734863
endloop
endfacet
facet normal 0.0 -1.0 0.0
outer loop
vertex -19.278047561645508 0.0 9.800000190734863
vertex -17.399999618530273 0.0 2.0999999046325684
vertex 19.278047561645508 0.0 9.800000190734863
endloop
endfacet
facet normal 0.0 0.0 1.0
outer loop
vertex 19.278047561645508 2.5 9.800000190734863
vertex -19.278047561645508 2.5 9.800000190734863
vertex -19.278047561645508 0.0 9.800000190734863
endloop
endfacet
facet normal 0.0 0.0 1.0
outer loop
vertex -19.47577667236328 2.5 9.800000190734863
vertex -19.278047561645508 2.5 9.800000190734863
vertex 19.47577667236328 31.5 9.800000190734863
endloop
endfacet
facet normal 0.0 0.0 -1.0
outer loop
vertex -36.0 4.0 0.0
vertex -36.0 30.0 0.0
vertex -32.0 34.0 0.0
endloop
endfacet
facet normal 0.0 0.0 -1.0
outer loop
vertex -36.0 4.0 0.0
vertex -32.0 34.0 0.0
vertex -6.900000095367432 31.0 0.0
endloop
endfacet
facet normal -1.0 0.0 0.0
outer loop
vertex -36.0 4.0 0.0
vertex -36.0 30.0 9.800000190734863
vertex -36.0 30.0 0.0
endloop
endfacet
facet normal -0.0 0.9999999999999999 0.0
outer loop
vertex -32.0 34.0 0.0
vertex -17.399999618530273 34.0 2.0999999046325684
vertex -6.900000095367432 34.0 0.0
endloop
endfacet
facet normal 0.0 1.0 0.0
outer loop
vertex -32.0 34.0 0.0
vertex -30.600000381469727 34.0 2.0999999046325684
vertex -17.399999618530273 34.0 2.0999999046325684
endloop
endfacet
facet normal -0.7071067811865476 0.7071067811865476 0.0
outer loop
vertex -36.0 30.0 0.0
vertex -32.0 34.0 9.800000190734863
vertex -32.0 34.0 0.0
endloop
endfacet
facet normal -0.0 0.9999999999999999 0.0
outer loop
vertex -32.0 34.0 0.0
vertex -32.0 34.0 9.800000190734863
vertex -30.600000381469727 34.0 2.0999999046325684
endloop
endfacet
facet normal 0.0 0.0 -0.9999999999999999
outer loop
vertex -36.0 4.0 0.0
vertex -6.900000095367432 31.0 0.0
vertex -5.099999904632568 31.0 0.0
endloop
endfacet
facet normal 0.0 0.0 -0.9999999999999999
outer loop
vertex -36.0 4.0 0.0
vertex -5.099999904632568 31.0 0.0
vertex -2.9000000953674316 31.0 0.0
endloop
endfacet
facet normal 0.0 0.0 -1.0
outer loop
vertex -36.0 4.0 0.0
vertex -2.9000000953674316 31.0 0.0
vertex -1.100000023841858 31.0 0.0
endloop
endfacet
facet normal 0.0 0.0 -1.0
outer loop
vertex -36.0 4.0 0.0
vertex -1.100000023841858 31.0 0.0
vertex 1.100000023841858 31.0 0.0
endloop
endfacet
facet normal 0.0 0.0 -1.0
outer loop
vertex -36.0 4.0 0.0
vertex 1.100000023841858 31.0 0.0
vertex 2.9000000953674316 31.0 0.0
endloop
endfacet
facet normal 0.0 0.0 -0.9999999999999999
outer loop
vertex -36.0 4.0 0.0
vertex 2.9000000953674316 31.0 0.0
vertex 5.099999904632568 31.0 0.0
endloop
endfacet
facet normal 0.0 0.0 -0.9999999999999999
outer loop
vertex -36.0 4.0 0.0
vertex 5.099999904632568 31.0 0.0
vertex 6.900000095367432 31.0 0.0
endloop
endfacet
facet normal 0.0 0.0 -1.0
outer loop
vertex -32.0 34.0 0.0
vertex -6.900000095367432 34.0 0.0
vertex -6.900000095367432 31.0 0.0
endloop
endfacet
facet normal -0.0 -0.0 -1.0
outer loop
vertex -5.099999904632568 34.0 0.0
vertex -2.9000000953674316 31.0 0.0
vertex -5.099999904632568 31.0 0.0
endloop
endfacet
facet normal 0.0 0.0 -1.0
outer loop
vertex -5.099999904632568 34.0 0.0
vertex -2.9000000953674316 34.0 0.0
vertex -2.9000000953674316 31.0 0.0
endloop
endfacet
facet normal -0.0 -0.0 -1.0
outer loop
vertex -1.100000023841858 34.0 0.0
vertex 1.100000023841858 31.0 0.0
vertex -1.100000023841858 31.0 0.0
endloop
endfacet
facet normal 0.0 1.0 0.0
outer loop
vertex -19.278047561645508 34.0 9.800000190734863
vertex -6.900000095367432 34.0 0.0
vertex -17.399999618530273 34.0 2.0999999046325684
endloop
endfacet
facet normal -0.0 1.0 0.0
outer loop
vertex -5.099999904632568 34.0 0.0
vertex -5.099999904632568 34.0 9.800000190734863
vertex -2.9000000953674316 34.0 0.0
endloop
endfacet
facet normal -0.0 1.0 0.0
outer loop
vertex -1.100000023841858 34.0 0.0
vertex -1.100000023841858 34.0 9.800000190734863
vertex 1.100000023841858 34.0 0.0
endloop
endfacet
facet normal 0.0 -0.0 1.0
outer loop
vertex -36.0 4.0 9.800000190734863
vertex -32.0 34.0 9.800000190734863
vertex -36.0 30.0 9.800000190734863
endloop
endfacet
facet normal 0.0 -0.0 1.0
outer loop
vertex -36.0 4.0 9.800000190734863
vertex -28.721952438354492 34.0 9.800000190734863
vertex -32.0 34.0 9.800000190734863
endloop
endfacet
facet normal 0.0 -0.0 1.0
outer loop
vertex -36.0 4.0 9.800000190734863
vertex -28.52422332763672 31.5 9.800000190734863
vertex -28.721952438354492 31.5 9.800000190734863
endloop
endfacet
facet normal 0.0 0.0 1.0
outer loop
vertex -36.0 4.0 9.800000190734863
vertex -28.721952438354492 31.5 9.800000190734863
vertex -28.721952438354492 34.0 9.800000190734863
endloop
endfacet
facet normal 0.0 -0.0 1.0
outer loop
vertex -19.47577667236328 2.5 9.800000190734863
vertex -19.278047561645508 31.5 9.800000190734863
vertex -19.47577667236328 31.5 9.800000190734863
endloop
endfacet
facet normal -0.7071067811865476 0.7071067811865476 0.0
outer loop
vertex -36.0 30.0 0.0
vertex -36.0 30.0 9.800000190734863
vertex -32.0 34.0 9.800000190734863
endloop
endfacet
facet normal -0.0 1.0 0.0
outer loop
vertex -32.0 34.0 9.800000190734863
vertex -28.721952438354492 34.0 9.800000190734863
vertex -30.600000381469727 34.0 2.0999999046325684
endloop
endfacet
facet normal 0.0 -0.0 1.0
outer loop
vertex -19.47577667236328 2.5 9.800000190734863
vertex -6.900000095367432 31.0 9.800000190734863
vertex -19.278047561645508 31.5 9.800000190734863
endloop
endfacet
facet normal 0.0 -0.0 1.0
outer loop
vertex -19.47577667236328 2.5 9.800000190734863
vertex -5.099999904632568 31.0 9.800000190734863
vertex -6.900000095367432 31.0 9.800000190734863
endloop
endfacet
facet normal 0.0 -0.0 0.9999999999999999
outer loop
vertex -19.47577667236328 2.5 9.800000190734863
vertex -2.9000000953674316 31.0 9.800000190734863
vertex -5.099999904632568 31.0 9.800000190734863
endloop
endfacet
facet normal 0.0 -0.0 1.0
outer loop
vertex -19.47577667236328 2.5 9.800000190734863
vertex -1.100000023841858 31.0 9.800000190734863
vertex -2.9000000953674316 31.0 9.800000190734863
endloop
endfacet
facet normal 0.0 -0.0 1.0
outer loop
vertex -19.47577667236328 2.5 9.800000190734863
vertex 1.100000023841858 31.0 9.800000190734863
vertex -1.100000023841858 31.0 9.800000190734863
endloop
endfacet
facet normal 0.0 -0.0 1.0
outer loop
vertex -19.47577667236328 2.5 9.800000190734863
vertex 2.9000000953674316 31.0 9.800000190734863
vertex 1.100000023841858 31.0 9.800000190734863
endloop
endfacet
facet normal 0.0 -0.0 0.9999999999999999
outer loop
vertex -19.47577667236328 2.5 9.800000190734863
vertex 5.099999904632568 31.0 9.800000190734863
vertex 2.9000000953674316 31.0 9.800000190734863
endloop
endfacet
facet normal 0.0 -0.0 1.0
outer loop
vertex -19.47577667236328 2.5 9.800000190734863
vertex 6.900000095367432 31.0 9.800000190734863
vertex 5.099999904632568 31.0 9.800000190734863
endloop
endfacet
facet normal 0.0 1.0 0.0
outer loop
vertex -6.900000095367432 34.0 9.800000190734863
vertex -6.900000095367432 34.0 0.0
vertex -19.278047561645508 34.0 9.800000190734863
endloop
endfacet
facet normal -0.0 1.0 0.0
outer loop
vertex -5.099999904632568 34.0 9.800000190734863
vertex -2.9000000953674316 34.0 9.800000190734863
vertex -2.9000000953674316 34.0 0.0
endloop
endfacet
facet normal -0.0 0.0 0.9999999999999999
outer loop
vertex -19.278047561645508 34.0 9.800000190734863
vertex -19.278047561645508 31.5 9.800000190734863
vertex -6.900000095367432 34.0 9.800000190734863
endloop
endfacet
facet normal 0.0 0.0 1.0
outer loop
vertex -6.900000095367432 34.0 9.800000190734863
vertex -19.278047561645508 31.5 9.800000190734863
vertex -6.900000095367432 31.0 9.800000190734863
endloop
endfacet
facet normal -0.0 0.0 1.0
outer loop
vertex -2.9000000953674316 34.0 9.800000190734863
vertex -5.099999904632568 31.0 9.800000190734863
vertex -2.9000000953674316 31.0 9.800000190734863
endloop
endfacet
facet normal -0.0 0.0 1.0
outer loop
vertex -5.099999904632568 34.0 9.800000190734863
vertex -5.099999904632568 31.0 9.800000190734863
vertex -2.9000000953674316 34.0 9.800000190734863
endloop
endfacet
facet normal -0.0 0.0 1.0
outer loop
vertex -1.100000023841858 34.0 9.800000190734863
vertex -1.100000023841858 31.0 9.800000190734863
vertex 1.100000023841858 34.0 9.800000190734863
endloop
endfacet
facet normal 0.0 -1.0 0.0
outer loop
vertex 32.0 0.0 0.0
vertex 17.399999618530273 0.0 2.0999999046325684
vertex -17.399999618530273 0.0 2.0999999046325684
endloop
endfacet
facet normal 0.0 -1.0 -0.0
outer loop
vertex 19.278047561645508 0.0 9.800000190734863
vertex -17.399999618530273 0.0 2.0999999046325684
vertex 17.399999618530273 0.0 2.0999999046325684
endloop
endfacet
facet normal 0.0 -0.0 -1.0
outer loop
vertex -36.0 4.0 0.0
vertex 36.0 30.0 0.0
vertex 32.0 0.0 0.0
endloop
endfacet
facet normal 0.0 -1.0 0.0
outer loop
vertex 32.0 0.0 0.0
vertex 30.600000381469727 0.0 2.0999999046325684
vertex 17.399999618530273 0.0 2.0999999046325684
endloop
endfacet
facet normal 0.7071067811865476 -0.7071067811865476 0.0
outer loop
vertex 32.0 0.0 0.0
vertex 36.0 4.0 0.0
vertex 32.0 0.0 9.800000190734863
endloop
endfacet
facet normal -0.0 -0.9999999999999999 0.0
outer loop
vertex 32.0 0.0 0.0
vertex 32.0 0.0 9.800000190734863
vertex 30.600000381469727 0.0 2.0999999046325684
endloop
endfacet
facet normal 0.0 0.0 -1.0
outer loop
vertex 32.0 0.0 0.0
vertex 36.0 30.0 0.0
vertex 36.0 4.0 0.0
endloop
endfacet
facet normal 1.0 0.0 -0.0
outer loop
vertex 36.0 4.0 0.0
vertex 36.0 30.0 0.0
vertex 36.0 4.0 9.800000190734863
endloop
endfacet
facet normal 0.0 0.0 1.0
outer loop
vertex -19.278047561645508 0.0 9.800000190734863
vertex 19.278047561645508 0.0 9.800000190734863
vertex 19.278047561645508 2.5 9.800000190734863
endloop
endfacet
facet normal 0.0 0.0 1.0
outer loop
vertex -19.278047561645508 2.5 9.800000190734863
vertex 19.278047561645508 2.5 9.800000190734863
vertex 19.47577667236328 31.5 9.800000190734863
endloop
endfacet
facet normal -0.0 -1.0 -0.0
outer loop
vertex 32.0 0.0 9.800000190734863
vertex 28.721952438354492 0.0 9.800000190734863
vertex 30.600000381469727 0.0 2.0999999046325684
endloop
endfacet
facet normal 0.7071067811865476 -0.7071067811865476 0.0
outer loop
vertex 36.0 4.0 0.0
vertex 36.0 4.0 9.800000190734863
vertex 32.0 0.0 9.800000190734863
endloop
endfacet
facet normal 0.0 0.0 1.0
outer loop
vertex 19.278047561645508 2.5 9.800000190734863
vertex 19.47577667236328 2.5 9.800000190734863
vertex 19.47577667236328 31.5 9.800000190734863
endloop
endfacet
facet normal 0.0 0.0 1.0
outer loop
vertex 36.0 30.0 9.800000190734863
vertex 28.721952438354492 2.5 9.800000190734863
vertex 28.721952438354492 0.0 9.800000190734863
endloop
endfacet
facet normal -0.0 0.0 1.0
outer loop
vertex 36.0 30.0 9.800000190734863
vertex 28.52422332763672 2.5 9.800000190734863
vertex 28.721952438354492 2.5 9.800000190734863
endloop
endfacet
facet normal 0.0 -0.0 1.0
outer loop
vertex 32.0 0.0 9.800000190734863
vertex 36.0 30.0 9.800000190734863
vertex 28.721952438354492 0.0 9.800000190734863
endloop
endfacet
facet normal 0.0 0.0 1.0
outer loop
vertex 32.0 0.0 9.800000190734863
vertex 36.0 4.0 9.800000190734863
vertex 36.0 30.0 9.800000190734863
endloop
endfacet
facet normal 0.0 0.0 -0.9999999999999999
outer loop
vertex -36.0 4.0 0.0
vertex 6.900000095367432 31.0 0.0
vertex 36.0 30.0 0.0
endloop
endfacet
facet normal 0.0 0.0 -1.0
outer loop
vertex -1.100000023841858 34.0 0.0
vertex 1.100000023841858 34.0 0.0
vertex 1.100000023841858 31.0 0.0
endloop
endfacet
facet normal -0.0 -0.0 -1.0
outer loop
vertex 2.9000000953674316 34.0 0.0
vertex 5.099999904632568 31.0 0.0
vertex 2.9000000953674316 31.0 0.0
endloop
endfacet
facet normal 0.0 0.0 -1.0
outer loop
vertex 2.9000000953674316 34.0 0.0
vertex 5.099999904632568 34.0 0.0
vertex 5.099999904632568 31.0 0.0
endloop
endfacet
facet normal 0.0 0.0 -1.0
outer loop
vertex 36.0 30.0 0.0
vertex 6.900000095367432 31.0 0.0
vertex 6.900000095367432 34.0 0.0
endloop
endfacet
facet normal -0.0 1.0 0.0
outer loop
vertex 2.9000000953674316 34.0 0.0
vertex 2.9000000953674316 34.0 9.800000190734863
vertex 5.099999904632568 34.0 0.0
endloop
endfacet
facet normal -0.0 1.0 0.0
outer loop
vertex 6.900000095367432 34.0 0.0
vertex 6.900000095367432 34.0 9.800000190734863
vertex 17.399999618530273 34.0 2.0999999046325684
endloop
endfacet
facet normal 0.0 0.9999999999999999 -0.0
outer loop
vertex 32.0 34.0 0.0
vertex 6.900000095367432 34.0 0.0
vertex 17.399999618530273 34.0 2.0999999046325684
endloop
endfacet
facet normal 0.0 0.0 -1.0
outer loop
vertex 36.0 30.0 0.0
vertex 6.900000095367432 34.0 0.0
vertex 32.0 34.0 0.0
endloop
endfacet
facet normal 0.0 1.0 -0.0
outer loop
vertex 32.0 34.0 0.0
vertex 17.399999618530273 34.0 2.0999999046325684
vertex 30.600000381469727 34.0 2.0999999046325684
endloop
endfacet
facet normal 0.7071067811865476 0.7071067811865476 0.0
outer loop
vertex 36.0 30.0 0.0
vertex 32.0 34.0 0.0
vertex 36.0 30.0 9.800000190734863
endloop
endfacet
facet normal 0.0 0.9999999999999999 -0.0
outer loop
vertex 32.0 34.0 0.0
vertex 30.600000381469727 34.0 2.0999999046325684
vertex 32.0 34.0 9.800000190734863
endloop
endfacet
facet normal 0.0 -0.0 1.0
outer loop
vertex -19.47577667236328 2.5 9.800000190734863
vertex 19.47577667236328 31.5 9.800000190734863
vertex 6.900000095367432 31.0 9.800000190734863
endloop
endfacet
facet normal -0.0 1.0 0.0
outer loop
vertex -1.100000023841858 34.0 9.800000190734863
vertex 1.100000023841858 34.0 9.800000190734863
vertex 1.100000023841858 34.0 0.0
endloop
endfacet
facet normal -0.0 1.0 0.0
outer loop
vertex 2.9000000953674316 34.0 9.800000190734863
vertex 5.099999904632568 34.0 9.800000190734863
vertex 5.099999904632568 34.0 0.0
endloop
endfacet
facet normal -0.0 1.0 0.0
outer loop
vertex 6.900000095367432 34.0 9.800000190734863
vertex 19.278047561645508 34.0 9.800000190734863
vertex 17.399999618530273 34.0 2.0999999046325684
endloop
endfacet
facet normal -0.0 0.0 1.0
outer loop
vertex 1.100000023841858 34.0 9.800000190734863
vertex -1.100000023841858 31.0 9.800000190734863
vertex 1.100000023841858 31.0 9.800000190734863
endloop
endfacet
facet normal -0.0 0.0 1.0
outer loop
vertex 5.099999904632568 34.0 9.800000190734863
vertex 2.9000000953674316 31.0 9.800000190734863
vertex 5.099999904632568 31.0 9.800000190734863
endloop
endfacet
facet normal -0.0 0.0 1.0
outer loop
vertex 2.9000000953674316 34.0 9.800000190734863
vertex 2.9000000953674316 31.0 9.800000190734863
vertex 5.099999904632568 34.0 9.800000190734863
endloop
endfacet
facet normal -0.0 0.0 1.0
outer loop
vertex 6.900000095367432 34.0 9.800000190734863
vertex 6.900000095367432 31.0 9.800000190734863
vertex 19.278047561645508 34.0 9.800000190734863
endloop
endfacet
facet normal 0.0 -0.0 1.0
outer loop
vertex 6.900000095367432 31.0 9.800000190734863
vertex 19.47577667236328 31.5 9.800000190734863
vertex 19.278047561645508 31.5 9.800000190734863
endloop
endfacet
facet normal 0.0 0.0 0.9999999999999999
outer loop
vertex 6.900000095367432 31.0 9.800000190734863
vertex 19.278047561645508 31.5 9.800000190734863
vertex 19.278047561645508 34.0 9.800000190734863
endloop
endfacet
facet normal 1.0 -0.0 0.0
outer loop
vertex 36.0 4.0 9.800000190734863
vertex 36.0 30.0 0.0
vertex 36.0 30.0 9.800000190734863
endloop
endfacet
facet normal 0.0 -0.0 1.0
outer loop
vertex 28.52422332763672 2.5 9.800000190734863
vertex 28.721952438354492 31.5 9.800000190734863
vertex 28.52422332763672 31.5 9.800000190734863
endloop
endfacet
facet normal 0.0 0.0 1.0
outer loop
vertex 36.0 30.0 9.800000190734863
vertex 28.721952438354492 31.5 9.800000190734863
vertex 28.52422332763672 2.5 9.800000190734863
endloop
endfacet
facet normal 0.0 1.0 0.0
outer loop
vertex 32.0 34.0 9.800000190734863
vertex 30.600000381469727 34.0 2.0999999046325684
vertex 28.721952438354492 34.0 9.800000190734863
endloop
endfacet
facet normal 0.7071067811865476 0.7071067811865476 -0.0
outer loop
vertex 32.0 34.0 0.0
vertex 32.0 34.0 9.800000190734863
vertex 36.0 30.0 9.800000190734863
endloop
endfacet
facet normal 0.0 0.0 1.0
outer loop
vertex 32.0 34.0 9.800000190734863
vertex 28.721952438354492 34.0 9.800000190734863
vertex 28.721952438354492 31.5 9.800000190734863
endloop
endfacet
facet normal 0.0 0.0 1.0
outer loop
vertex 36.0 30.0 9.800000190734863
vertex 32.0 34.0 9.800000190734863
vertex 28.721952438354492 31.5 9.800000190734863
endloop
endfacet
facet normal -0.0 0.0 1.0
outer loop
vertex -30.600000381469727 2.5 2.0999999046325684
vertex -30.600000381469727 0.0 2.0999999046325684
vertex -17.399999618530273 2.5 2.0999999046325684
endloop
endfacet
facet normal 0.0 -1.0 0.0
outer loop
vertex -30.600000381469727 2.5 2.0999999046325684
vertex -17.600000381469727 2.5 2.25
vertex -30.399999618530273 2.5 2.25
endloop
endfacet
facet normal -0.0 0.0 1.0
outer loop
vertex -17.399999618530273 2.5 2.0999999046325684
vertex -30.600000381469727 0.0 2.0999999046325684
vertex -17.399999618530273 0.0 2.0999999046325684
endloop
endfacet
facet normal 0.0 -1.0 0.0
outer loop
vertex -30.600000381469727 2.5 2.0999999046325684
vertex -17.399999618530273 2.5 2.0999999046325684
vertex -17.600000381469727 2.5 2.25
endloop
endfacet
facet normal 0.9715203651319905 0.0 -0.23695607216065195
outer loop
vertex -30.600000381469727 2.5 2.0999999046325684
vertex -28.721952438354492 0.0 9.800000190734863
vertex -30.600000381469727 0.0 2.0999999046325684
endloop
endfacet
facet normal 0.0 -1.0 0.0
outer loop
vertex -30.600000381469727 2.5 2.0999999046325684
vertex -30.399999618530273 2.5 2.25
vertex -28.721952438354492 2.5 9.800000190734863
endloop
endfacet
facet normal -0.9715203651319905 -0.0 -0.23695607216065195
outer loop
vertex -17.399999618530273 2.5 2.0999999046325684
vertex -17.399999618530273 0.0 2.0999999046325684
vertex -19.278047561645508 2.5 9.800000190734863
endloop
endfacet
facet normal -0.0 -1.0 -0.0
outer loop
vertex -17.399999618530273 2.5 2.0999999046325684
vertex -19.278047561645508 2.5 9.800000190734863
vertex -17.600000381469727 2.5 2.25
endloop
endfacet
facet normal 0.9715203651319905 0.0 -0.23695607216065195
outer loop
vertex -30.600000381469727 2.5 2.0999999046325684
vertex -28.721952438354492 2.5 9.800000190734863
vertex -28.721952438354492 0.0 9.800000190734863
endloop
endfacet
facet normal 0.0 -1.0 0.0
outer loop
vertex -30.399999618530273 2.5 2.25
vertex -28.52422332763672 2.5 9.800000190734863
vertex -28.721952438354492 2.5 9.800000190734863
endloop
endfacet
facet normal -0.9715203651319905 0.0 -0.23695607216065195
outer loop
vertex -19.278047561645508 2.5 9.800000190734863
vertex -17.399999618530273 0.0 2.0999999046325684
vertex -19.278047561645508 0.0 9.800000190734863
endloop
endfacet
facet normal 0.0 -1.0 0.0
outer loop
vertex -17.600000381469727 2.5 2.25
vertex -19.278047561645508 2.5 9.800000190734863
vertex -19.47577667236328 2.5 9.800000190734863
endloop
endfacet
facet normal 0.0 -0.0 1.0
outer loop
vertex -30.399999618530273 2.5 2.25
vertex -17.600000381469727 2.5 2.25
vertex -30.399999618530273 31.5 2.25
endloop
endfacet
facet normal -0.9704960518516398 0.0 -0.24111701171916392
outer loop
vertex -17.600000381469727 2.5 2.25
vertex -19.47577667236328 2.5 9.800000190734863
vertex -17.600000381469727 31.5 2.25
endloop
endfacet
facet normal 0.9704960518516398 0.0 -0.24111701171916392
outer loop
vertex -30.399999618530273 2.5 2.25
vertex -28.52422332763672 31.5 9.800000190734863
vertex -28.52422332763672 2.5 9.800000190734863
endloop
endfacet
facet normal 0.0 -0.0 1.0
outer loop
vertex -17.600000381469727 2.5 2.25
vertex -17.600000381469727 31.5 2.25
vertex -30.399999618530273 31.5 2.25
endloop
endfacet
facet normal 0.9704960518516398 0.0 -0.24111701171916392
outer loop
vertex -30.399999618530273 2.5 2.25
vertex -30.399999618530273 31.5 2.25
vertex -28.52422332763672 31.5 9.800000190734863
endloop
endfacet
facet normal -0.9704960518516398 0.0 -0.24111701171916392
outer loop
vertex -17.600000381469727 31.5 2.25
vertex -19.47577667236328 2.5 9.800000190734863
vertex -19.47577667236328 31.5 9.800000190734863
endloop
endfacet
facet normal -0.0 1.0 0.0
outer loop
vertex -30.600000381469727 31.5 2.0999999046325684
vertex -30.399999618530273 31.5 2.25
vertex -17.399999618530273 31.5 2.0999999046325684
endloop
endfacet
facet normal 0.0 -0.0 1.0
outer loop
vertex -30.600000381469727 31.5 2.0999999046325684
vertex -17.399999618530273 34.0 2.0999999046325684
vertex -30.600000381469727 34.0 2.0999999046325684
endloop
endfacet
facet normal -0.0 1.0 0.0
outer loop
vertex -30.399999618530273 31.5 2.25
vertex -17.600000381469727 31.5 2.25
vertex -17.399999618530273 31.5 2.0999999046325684
endloop
endfacet
facet normal 0.0 0.0 1.0
outer loop
vertex -30.600000381469727 31.5 2.0999999046325684
vertex -17.399999618530273 31.5 2.0999999046325684
vertex -17.399999618530273 34.0 2.0999999046325684
endloop
endfacet
facet normal -0.0 1.0 0.0
outer loop
vertex -30.600000381469727 31.5 2.0999999046325684
vertex -28.721952438354492 31.5 9.800000190734863
vertex -30.399999618530273 31.5 2.25
endloop
endfacet
facet normal 0.9715203651319905 0.0 -0.23695607216065195
outer loop
vertex -30.600000381469727 31.5 2.0999999046325684
vertex -30.600000381469727 34.0 2.0999999046325684
vertex -28.721952438354492 31.5 9.800000190734863
endloop
endfacet
facet normal 0.0 1.0 0.0
outer loop
vertex -17.399999618530273 31.5 2.0999999046325684
vertex -17.600000381469727 31.5 2.25
vertex -19.278047561645508 31.5 9.800000190734863
endloop
endfacet
facet normal -0.9715203651319905 0.0 -0.23695607216065195
outer loop
vertex -17.399999618530273 31.5 2.0999999046325684
vertex -19.278047561645508 34.0 9.800000190734863
vertex -17.399999618530273 34.0 2.0999999046325684
endloop
endfacet
facet normal 0.0 1.0 0.0
outer loop
vertex -30.399999618530273 31.5 2.25
vertex -28.721952438354492 31.5 9.800000190734863
vertex -28.52422332763672 31.5 9.800000190734863
endloop
endfacet
facet normal 0.9715203651319905 0.0 -0.23695607216065195
outer loop
vertex -28.721952438354492 31.5 9.800000190734863
vertex -30.600000381469727 34.0 2.0999999046325684
vertex -28.721952438354492 34.0 9.800000190734863
endloop
endfacet
facet normal 0.0 1.0 -0.0
outer loop
vertex -17.600000381469727 31.5 2.25
vertex -19.47577667236328 31.5 9.800000190734863
vertex -19.278047561645508 31.5 9.800000190734863
endloop
endfacet
facet normal -0.9715203651319905 0.0 -0.23695607216065195
outer loop
vertex -17.399999618530273 31.5 2.0999999046325684
vertex -19.278047561645508 31.5 9.800000190734863
vertex -19.278047561645508 34.0 9.800000190734863
endloop
endfacet
facet normal -0.0 0.0 1.0
outer loop
vertex 17.399999618530273 2.5 2.0999999046325684
vertex 17.399999618530273 0.0 2.0999999046325684
vertex 30.600000381469727 2.5 2.0999999046325684
endloop
endfacet
facet normal 0.0 -1.0 0.0
outer loop
vertex 17.399999618530273 2.5 2.0999999046325684
vertex 30.600000381469727 2.5 2.0999999046325684
vertex 17.600000381469727 2.5 2.25
endloop
endfacet
facet normal -0.0 0.0 1.0
outer loop
vertex 30.600000381469727 2.5 2.0999999046325684
vertex 17.399999618530273 0.0 2.0999999046325684
vertex 30.600000381469727 0.0 2.0999999046325684
endloop
endfacet
facet normal 0.0 -1.0 0.0
outer loop
vertex 17.600000381469727 2.5 2.25
vertex 30.600000381469727 2.5 2.0999999046325684
vertex 30.399999618530273 2.5 2.25
endloop
endfacet
facet normal 0.9715203651319905 0.0 -0.23695607216065195
outer loop
vertex 17.399999618530273 2.5 2.0999999046325684
vertex 19.278047561645508 0.0 9.800000190734863
vertex 17.399999618530273 0.0 2.0999999046325684
endloop
endfacet
facet normal 0.0 -1.0 0.0
outer loop
vertex 17.399999618530273 2.5 2.0999999046325684
vertex 17.600000381469727 2.5 2.25
vertex 19.278047561645508 2.5 9.800000190734863
endloop
endfacet
facet normal -0.9715203651319905 -0.0 -0.23695607216065195
outer loop
vertex 30.600000381469727 2.5 2.0999999046325684
vertex 30.600000381469727 0.0 2.0999999046325684
vertex 28.721952438354492 2.5 9.800000190734863
endloop
endfacet
facet normal -0.0 -1.0 -0.0
outer loop
vertex 30.600000381469727 2.5 2.0999999046325684
vertex 28.721952438354492 2.5 9.800000190734863
vertex 30.399999618530273 2.5 2.25
endloop
endfacet
facet normal 0.9715203651319905 0.0 -0.23695607216065195
outer loop
vertex 17.399999618530273 2.5 2.0999999046325684
vertex 19.278047561645508 2.5 9.800000190734863
vertex 19.278047561645508 0.0 9.800000190734863
endloop
endfacet
facet normal 0.0 -1.0 0.0
outer loop
vertex 17.600000381469727 2.5 2.25
vertex 19.47577667236328 2.5 9.800000190734863
vertex 19.278047561645508 2.5 9.800000190734863
endloop
endfacet
facet normal -0.9715203651319905 0.0 -0.23695607216065195
outer loop
vertex 28.721952438354492 2.5 9.800000190734863
vertex 30.600000381469727 0.0 2.0999999046325684
vertex 28.721952438354492 0.0 9.800000190734863
endloop
endfacet
facet normal 0.0 -1.0 0.0
outer loop
vertex 30.399999618530273 2.5 2.25
vertex 28.721952438354492 2.5 9.800000190734863
vertex 28.52422332763672 2.5 9.800000190734863
endloop
endfacet
facet normal 0.0 0.0 1.0
outer loop
vertex 17.600000381469727 2.5 2.25
vertex 30.399999618530273 2.5 2.25
vertex 30.399999618530273 31.5 2.25
endloop
endfacet
facet normal -0.9704960518516398 0.0 -0.24111701171916392
outer loop
vertex 30.399999618530273 2.5 2.25
vertex 28.52422332763672 2.5 9.800000190734863
vertex 30.399999618530273 31.5 2.25
endloop
endfacet
facet normal 0.9704960518516398 0.0 -0.24111701171916392
outer loop
vertex 17.600000381469727 2.5 2.25
vertex 19.47577667236328 31.5 9.800000190734863
vertex 19.47577667236328 2.5 9.800000190734863
endloop
endfacet
facet normal 0.0 -0.0 1.0
outer loop
vertex 17.600000381469727 2.5 2.25
vertex 30.399999618530273 31.5 2.25
vertex 17.600000381469727 31.5 2.25
endloop
endfacet
facet normal 0.9704960518516398 0.0 -0.24111701171916392
outer loop
vertex 17.600000381469727 2.5 2.25
vertex 17.600000381469727 31.5 2.25
vertex 19.47577667236328 31.5 9.800000190734863
endloop
endfacet
facet normal -0.9704960518516398 0.0 -0.24111701171916392
outer loop
vertex 30.399999618530273 31.5 2.25
vertex 28.52422332763672 2.5 9.800000190734863
vertex 28.52422332763672 31.5 9.800000190734863
endloop
endfacet
facet normal 0.0 1.0 0.0
outer loop
vertex 17.399999618530273 31.5 2.0999999046325684
vertex 17.600000381469727 31.5 2.25
vertex 30.399999618530273 31.5 2.25
endloop
endfacet
facet normal 0.0 -0.0 1.0
outer loop
vertex 17.399999618530273 31.5 2.0999999046325684
vertex 30.600000381469727 34.0 2.0999999046325684
vertex 17.399999618530273 34.0 2.0999999046325684
endloop
endfacet
facet normal -0.0 1.0 0.0
outer loop
vertex 17.399999618530273 31.5 2.0999999046325684
vertex 30.399999618530273 31.5 2.25
vertex 30.600000381469727 31.5 2.0999999046325684
endloop
endfacet
facet normal 0.0 0.0 1.0
outer loop
vertex 17.399999618530273 31.5 2.0999999046325684
vertex 30.600000381469727 31.5 2.0999999046325684
vertex 30.600000381469727 34.0 2.0999999046325684
endloop
endfacet
facet normal -0.0 1.0 0.0
outer loop
vertex 17.399999618530273 31.5 2.0999999046325684
vertex 19.278047561645508 31.5 9.800000190734863
vertex 17.600000381469727 31.5 2.25
endloop
endfacet
facet normal 0.9715203651319905 0.0 -0.23695607216065195
outer loop
vertex 17.399999618530273 31.5 2.0999999046325684
vertex 17.399999618530273 34.0 2.0999999046325684
vertex 19.278047561645508 31.5 9.800000190734863
endloop
endfacet
facet normal 0.0 1.0 0.0
outer loop
vertex 30.600000381469727 31.5 2.0999999046325684
vertex 30.399999618530273 31.5 2.25
vertex 28.52422332763672 31.5 9.800000190734863
endloop
endfacet
facet normal -0.9715203651319905 0.0 -0.23695607216065195
outer loop
vertex 30.600000381469727 31.5 2.0999999046325684
vertex 28.721952438354492 34.0 9.800000190734863
vertex 30.600000381469727 34.0 2.0999999046325684
endloop
endfacet
facet normal 0.0 1.0 0.0
outer loop
vertex 17.600000381469727 31.5 2.25
vertex 19.278047561645508 31.5 9.800000190734863
vertex 19.47577667236328 31.5 9.800000190734863
endloop
endfacet
facet normal 0.9715203651319905 0.0 -0.23695607216065195
outer loop
vertex 19.278047561645508 31.5 9.800000190734863
vertex 17.399999618530273 34.0 2.0999999046325684
vertex 19.278047561645508 34.0 9.800000190734863
endloop
endfacet
facet normal 0.0 1.0 -0.0
outer loop
vertex 30.600000381469727 31.5 2.0999999046325684
vertex 28.52422332763672 31.5 9.800000190734863
vertex 28.721952438354492 31.5 9.800000190734863
endloop
endfacet
facet normal -0.9715203651319905 0.0 -0.23695607216065195
outer loop
vertex 30.600000381469727 31.5 2.0999999046325684
vertex 28.721952438354492 31.5 9.800000190734863
vertex 28.721952438354492 34.0 9.800000190734863
endloop
endfacet
facet normal 0.0 1.0 -0.0
outer loop
vertex -5.099999904632568 31.0 0.0
vertex -6.900000095367432 31.0 0.0
vertex -6.900000095367432 31.0 9.800000190734863
endloop
endfacet
facet normal 0.9999999999999999 -0.0 0.0
outer loop
vertex -6.900000095367432 34.0 9.800000190734863
vertex -6.900000095367432 31.0 0.0
vertex -6.900000095367432 34.0 0.0
endloop
endfacet
facet normal -0.9999999999999999 0.0 0.0
outer loop
vertex -5.099999904632568 34.0 0.0
vertex -5.099999904632568 31.0 0.0
vertex -5.099999904632568 31.0 9.800000190734863
endloop
endfacet
facet normal 0.0 1.0 -0.0
outer loop
vertex -5.099999904632568 31.0 0.0
vertex -6.900000095367432 31.0 9.800000190734863
vertex -5.099999904632568 31.0 9.800000190734863
endloop
endfacet
facet normal 0.9999999999999999 0.0 0.0
outer loop
vertex -6.900000095367432 34.0 9.800000190734863
vertex -6.900000095367432 31.0 9.800000190734863
vertex -6.900000095367432 31.0 0.0
endloop
endfacet
facet normal -0.9999999999999999 0.0 0.0
outer loop
vertex -5.099999904632568 34.0 0.0
vertex -5.099999904632568 31.0 9.800000190734863
vertex -5.099999904632568 34.0 9.800000190734863
endloop
endfacet
facet normal 0.0 1.0 -0.0
outer loop
vertex -1.100000023841858 31.0 0.0
vertex -2.9000000953674316 31.0 0.0
vertex -2.9000000953674316 31.0 9.800000190734863
endloop
endfacet
facet normal 0.9999999999999999 -0.0 0.0
outer loop
vertex -2.9000000953674316 34.0 9.800000190734863
vertex -2.9000000953674316 31.0 0.0
vertex -2.9000000953674316 34.0 0.0
endloop
endfacet
facet normal -0.9999999999999999 0.0 0.0
outer loop
vertex -1.100000023841858 34.0 0.0
vertex -1.100000023841858 31.0 0.0
vertex -1.100000023841858 31.0 9.800000190734863
endloop
endfacet
facet normal 0.0 1.0 -0.0
outer loop
vertex -1.100000023841858 31.0 0.0
vertex -2.9000000953674316 31.0 9.800000190734863
vertex -1.100000023841858 31.0 9.800000190734863
endloop
endfacet
facet normal 0.9999999999999999 0.0 0.0
outer loop
vertex -2.9000000953674316 34.0 9.800000190734863
vertex -2.9000000953674316 31.0 9.800000190734863
vertex -2.9000000953674316 31.0 0.0
endloop
endfacet
facet normal -0.9999999999999999 0.0 0.0
outer loop
vertex -1.100000023841858 34.0 0.0
vertex -1.100000023841858 31.0 9.800000190734863
vertex -1.100000023841858 34.0 9.800000190734863
endloop
endfacet
facet normal 0.0 1.0 -0.0
outer loop
vertex 2.9000000953674316 31.0 0.0
vertex 1.100000023841858 31.0 0.0
vertex 1.100000023841858 31.0 9.800000190734863
endloop
endfacet
facet normal 0.9999999999999999 -0.0 0.0
outer loop
vertex 1.100000023841858 34.0 9.800000190734863
vertex 1.100000023841858 31.0 0.0
vertex 1.100000023841858 34.0 0.0
endloop
endfacet
facet normal -0.9999999999999999 0.0 0.0
outer loop
vertex 2.9000000953674316 34.0 0.0
vertex 2.9000000953674316 31.0 0.0
vertex 2.9000000953674316 31.0 9.800000190734863
endloop
endfacet
facet normal 0.0 1.0 -0.0
outer loop
vertex 2.9000000953674316 31.0 0.0
vertex 1.100000023841858 31.0 9.800000190734863
vertex 2.9000000953674316 31.0 9.800000190734863
endloop
endfacet
facet normal 0.9999999999999999 0.0 0.0
outer loop
vertex 1.100000023841858 34.0 9.800000190734863
vertex 1.100000023841858 31.0 9.800000190734863
vertex 1.100000023841858 31.0 0.0
endloop
endfacet
facet normal -0.9999999999999999 0.0 0.0
outer loop
vertex 2.9000000953674316 34.0 0.0
vertex 2.9000000953674316 31.0 9.800000190734863
vertex 2.9000000953674316 34.0 9.800000190734863
endloop
endfacet
facet normal 0.0 1.0 -0.0
outer loop
vertex 6.900000095367432 31.0 0.0
vertex 5.099999904632568 31.0 0.0
vertex 5.099999904632568 31.0 9.800000190734863
endloop
endfacet
facet normal 0.9999999999999999 -0.0 0.0
outer loop
vertex 5.099999904632568 34.0 9.800000190734863
vertex 5.099999904632568 31.0 0.0
vertex 5.099999904632568 34.0 0.0
endloop
endfacet
facet normal -0.9999999999999999 0.0 0.0
outer loop
vertex 6.900000095367432 34.0 0.0
vertex 6.900000095367432 31.0 0.0
vertex 6.900000095367432 31.0 9.800000190734863
endloop
endfacet
facet normal 0.0 1.0 -0.0
outer loop
vertex 6.900000095367432 31.0 0.0
vertex 5.099999904632568 31.0 9.800000190734863
vertex 6.900000095367432 31.0 9.800000190734863
endloop
endfacet
facet normal 0.9999999999999999 0.0 0.0
outer loop
vertex 5.099999904632568 34.0 9.800000190734863
vertex 5.099999904632568 31.0 9.800000190734863
vertex 5.099999904632568 31.0 0.0
endloop
endfacet
facet normal -0.9999999999999999 0.0 0.0
outer loop
vertex 6.900000095367432 34.0 0.0
vertex 6.900000095367432 31.0 9.800000190734863
vertex 6.900000095367432 34.0 9.800000190734863
endloop
endfacet

endsolid
